<?xml version="1.0" encoding="UTF-8"?>
<svg width="2536px" height="1791px" viewBox="0 0 2536 1791" version="1.1" xmlns="http://www.w3.org/2000/svg" xmlns:xlink="http://www.w3.org/1999/xlink">
    <!-- Generator: Sketch 45.2 (43514) - http://www.bohemiancoding.com/sketch -->
    <title>Untitled 4</title>
    <desc>Created with Sketch.</desc>
    <defs></defs>
    <g id="Page-1" stroke="none" stroke-width="1" fill="none" fill-rule="evenodd">
        <polyline id="Fill-21" fill="#583B2D" points="982 486.650844 1125.15561 404 1125.15561 581.586012 982 664.236856 982 486.650844"></polyline>
        <polyline id="Fill-22" fill="#75513F" points="982.154124 486.650844 839 404 839 581.586012 982.154124 664.236856 982.154124 486.650844"></polyline>
        <polyline id="Fill-23" fill="#B6826C" points="982.154124 321 839 403.650844 982.154124 486.301688 1125.30974 403.650844 982.154124 321"></polyline>
        <polyline id="Fill-48" fill="#14120F" points="1269 486.650844 1412.15561 404 1412.15561 581.586012 1269 664.236856 1269 486.650844"></polyline>
        <polyline id="Fill-49" fill="#1F1612" points="1268.15412 486.650844 1125 404 1125 581.586012 1268.15412 664.236856 1268.15412 486.650844"></polyline>
        <polyline id="Fill-50" fill="#3A231B" points="1268.15412 321 1125 403.650844 1268.15412 486.301688 1411.30974 403.650844 1268.15412 321"></polyline>
        <polyline id="Fill-66" fill="#233F3C" points="1411.35857 225.037676 1268.20445 142.388322 1268.20445 319.980298 1411.35857 402.631142 1411.35857 225.037676"></polyline>
        <polyline id="Fill-67" fill="#0F1514" points="1411.35857 225.037676 1554.51866 142.388322 1554.51866 319.980298 1411.35857 402.631142 1411.35857 225.037676"></polyline>
        <polyline id="Fill-68" fill="#2E5A56" points="1411.35857 59.7374786 1268.20445 142.388322 1411.35857 225.037676 1554.51866 142.388322 1411.35857 59.7374786"></polyline>
        <polyline id="Fill-69" fill="#193245" points="266.116635 1471.68003 409.272249 1554.33088 409.272249 1376.74487 266.116635 1294.09402 266.116635 1471.68003"></polyline>
        <polyline id="Fill-70" fill="#101A22" points="552.427864 1471.68003 409.272249 1554.33088 409.272249 1376.74487 552.427864 1294.09402 552.427864 1471.68003"></polyline>
        <polyline id="Fill-71" fill="#1F455D" points="409.272249 1211.44318 266.116635 1294.09402 409.272249 1376.74487 552.427864 1294.09402 409.272249 1211.44318"></polyline>
        <polyline id="Fill-99" fill="#2E5A56" points="1697.66682 225.037676 1554.51866 142.388322 1554.51866 319.980298 1697.66682 402.631142 1697.66682 225.037676"></polyline>
        <polyline id="Fill-100" fill="#233F3C" points="1697.66682 225.037676 1840.82989 142.388322 1840.82989 319.980298 1697.66682 402.631142 1697.66682 225.037676"></polyline>
        <polyline id="Fill-101" fill="#496963" points="1697.66682 59.7374786 1554.51866 142.388322 1697.66682 225.037676 1840.82989 142.388322 1697.66682 59.7374786"></polyline>
        <polyline id="Fill-118" fill="#2D2217" points="0.423391769 213.135 122.962511 142.388322 122.962511 319.980298 0.423391769 390.728466 0.423391769 213.135"></polyline>
        <polyline id="Fill-119" fill="#9D612F" points="0.423391769 213.135 122.962511 142.388322 0.423391769 71.6401543 0.423391769 213.135"></polyline>
        <polyline id="Fill-122" fill="#5D1C1B" points="2127.14112 319.980298 1983.97805 402.631142 1983.97805 225.037676 2127.14112 142.388322 2127.14112 319.980298"></polyline>
        <polyline id="Fill-123" fill="#A4362B" points="1840.82989 319.980298 1983.97805 402.631142 1983.97805 225.037676 1840.82989 142.388322 1840.82989 319.980298"></polyline>
        <polyline id="Fill-124" fill="#C75445" points="1983.97805 59.7374786 1840.82989 142.388322 1983.97805 225.037676 2127.14112 142.388322 1983.97805 59.7374786"></polyline>
        <polyline id="Fill-136" fill="#306A8D" points="2127.14112 319.980298 2270.28928 402.631142 2270.28928 225.037676 2127.14112 142.388322 2127.14112 319.980298"></polyline>
        <polyline id="Fill-137" fill="#1F455D" points="2413.45235 319.980298 2270.28928 402.631142 2270.28928 225.037676 2413.45235 142.388322 2413.45235 319.980298"></polyline>
        <polyline id="Fill-138" fill="#428EBE" points="2270.28928 59.7374786 2127.14112 142.388322 2270.28928 225.037676 2413.45235 142.388322 2270.28928 59.7374786"></polyline>
        <polyline id="Fill-139" fill="#1F455D" points="2413.45235 319.980298 2535.98252 390.728466 2535.98252 213.135 2413.45235 142.388322 2413.45235 319.980298"></polyline>
        <polyline id="Fill-140" fill="#306A8D" points="2535.98252 71.6401543 2413.45235 142.388322 2535.98252 213.135 2535.98252 71.6401543"></polyline>
        <polyline id="Fill-143" fill="#496963" points="1555.16009 486.650844 1412 404 1412 581.586012 1555.16009 664.236856 1555.16009 486.650844"></polyline>
        <polyline id="Fill-144" fill="#2E5A56" points="1555 486.650844 1698.14816 404 1698.14816 581.586012 1555 664.236856 1555 486.650844"></polyline>
        <polyline id="Fill-145" fill="#5E807B" points="1555.16009 321 1412 403.650844 1555.16009 486.301688 1698.30825 403.650844 1555.16009 321"></polyline>
        <polyline id="Fill-148" fill="#5E807B" points="1840.82989 1731.9318 1697.66682 1814.58264 1793.55611 1869.93664 1888.08876 1869.93664 1983.97805 1814.58264 1840.82989 1731.9318"></polyline>
        <polyline id="Fill-149" fill="#496963" points="1697.66682 1636.98172 1554.51866 1554.33088 1554.51866 1731.9318 1697.66682 1814.58264 1697.66682 1636.98172"></polyline>
        <polyline id="Fill-150" fill="#2E5A56" points="1697.66682 1636.98172 1840.82989 1554.33088 1840.82989 1731.9318 1697.66682 1814.58264 1697.66682 1636.98172"></polyline>
        <polyline id="Fill-151" fill="#5E807B" points="1697.66682 1471.68003 1554.51866 1554.33088 1697.66682 1636.98172 1840.82989 1554.33088 1697.66682 1471.68003"></polyline>
        <polyline id="Fill-152" fill="#5E807B" points="1411.35857 1636.98172 1268.20296 1554.33088 1268.20296 1731.9318 1411.35857 1814.58264 1411.35857 1636.98172"></polyline>
        <polyline id="Fill-153" fill="#496963" points="1411.35857 1636.98172 1554.51866 1554.33088 1554.51866 1731.9318 1411.35857 1814.58264 1411.35857 1636.98172"></polyline>
        <polyline id="Fill-154" fill="#77B0A8" points="1411.35857 1471.68003 1268.20445 1554.33088 1411.35857 1636.98172 1554.51866 1554.33088 1411.35857 1471.68003"></polyline>
        <polyline id="Fill-157" fill="#2E5A56" points="1554.51866 1731.9318 1411.35857 1814.58264 1507.24488 1869.93664 1601.77753 1869.93664 1697.66682 1814.58264 1554.51866 1731.9318"></polyline>
        <polyline id="Fill-160" fill="#2E5A56" points="1268.20296 1731.9318 1125.04883 1814.58264 1220.93514 1869.93664 1315.47226 1869.93664 1411.35857 1814.58264 1268.20296 1731.9318"></polyline>
        <polyline id="Fill-161" fill="#1F1612" points="1125.04883 1636.98172 1268.20296 1554.33088 1268.20296 1731.9318 1125.04883 1814.58264 1125.04883 1636.98172"></polyline>
        <polyline id="Fill-162" fill="#3A231B" points="1125.04883 1636.98172 981.893218 1554.33088 981.893218 1731.9318 1125.04883 1814.58264 1125.04883 1636.98172"></polyline>
        <polyline id="Fill-163" fill="#583B2D" points="1125.04883 1471.68003 981.893218 1554.33088 1125.04883 1636.98172 1268.20296 1554.33088 1125.04883 1471.68003"></polyline>
        <polyline id="Fill-164" fill="#1F1612" points="838.739094 1636.98172 981.893218 1554.33088 981.893218 1731.9318 838.739094 1814.58264 838.739094 1636.98172"></polyline>
        <polyline id="Fill-165" fill="#3A231B" points="838.739094 1636.98172 695.583479 1554.33088 695.583479 1731.9318 838.739094 1814.58264 838.739094 1636.98172"></polyline>
        <polyline id="Fill-166" fill="#583B2D" points="838.739094 1471.68003 695.583479 1554.33088 838.739094 1636.98172 981.893218 1554.33088 838.739094 1471.68003"></polyline>
        <polyline id="Fill-167" fill="#1F455D" points="0.423391769 1483.59165 122.962511 1554.33088 122.962511 1376.74487 0.423391769 1305.99073 0.423391769 1483.59165"></polyline>
        <polyline id="Fill-168" fill="#193245" points="266.118126 1471.68003 122.962511 1554.33088 122.962511 1376.74487 266.118126 1294.09402 266.118126 1471.68003"></polyline>
        <polyline id="Fill-169" fill="#306A8D" points="122.962511 1211.44318 0.423391769 1282.1824 0.423391769 1305.99073 122.962511 1376.74487 266.118126 1294.09402 122.962511 1211.44318"></polyline>
        <polyline id="Fill-176" fill="#75513F" points="981.893218 1731.9318 838.739094 1814.58264 934.625403 1869.93664 1029.16103 1869.93664 1125.04883 1814.58264 981.893218 1731.9318"></polyline>
        <polyline id="Fill-179" fill="#306A8D" points="695.583479 1731.9318 552.429355 1814.58264 648.315664 1869.93664 742.851294 1869.93664 838.739094 1814.58264 695.583479 1731.9318"></polyline>
        <polyline id="Fill-182" fill="#C88031" points="409.272249 1731.9318 266.116635 1814.58264 362.004435 1869.93664 456.540064 1869.93664 552.427864 1814.58264 409.272249 1731.9318"></polyline>
        <polyline id="Fill-183" fill="#5D1C1B" points="122.96102 1731.9318 0.423391769 1802.67102 0.423391769 1625.08501 122.96102 1554.33088 122.96102 1731.9318"></polyline>
        <polyline id="Fill-184" fill="#C75445" points="0.423391769 1625.08501 122.962511 1554.33088 0.423391769 1483.59165 0.423391769 1625.08501"></polyline>
        <polyline id="Fill-185" fill="#14120F" points="2127.14112 1376.74487 2270.28928 1294.09402 2270.28928 1471.68003 2127.14112 1554.33088 2127.14112 1376.74487"></polyline>
        <polyline id="Fill-186" fill="#1F1612" points="2127.14112 1376.74487 1983.97805 1294.09402 1983.97805 1471.68003 2127.14112 1554.33088 2127.14112 1376.74487"></polyline>
        <polyline id="Fill-187" fill="#3A231B" points="2127.14112 1211.44318 1983.97805 1294.09402 2127.14112 1376.74487 2270.28928 1294.09402 2127.14112 1211.44318"></polyline>
        <polyline id="Fill-188" fill="#3A231B" points="2413.45235 1376.74487 2535.98252 1305.99073 2535.98252 1483.59165 2413.45235 1554.33088 2413.45235 1376.74487"></polyline>
        <polyline id="Fill-189" fill="#583B2D" points="2413.45235 1376.74487 2270.28928 1294.09402 2270.28928 1471.68003 2413.45235 1554.33088 2413.45235 1376.74487"></polyline>
        <polyline id="Fill-190" fill="#75513F" points="2413.45235 1211.44318 2270.28928 1294.09402 2413.45235 1376.74487 2535.98252 1305.99073 2535.98252 1282.1824 2413.45235 1211.44318"></polyline>
        <polyline id="Fill-191" fill="#D8974C" points="1983.97805 1636.98172 1840.82989 1554.33088 1840.82989 1731.9318 1983.97805 1814.58264 1983.97805 1636.98172"></polyline>
        <polyline id="Fill-192" fill="#C88031" points="1983.97805 1636.98172 2127.14112 1554.33088 2127.14112 1731.9318 1983.97805 1814.58264 1983.97805 1636.98172"></polyline>
        <polyline id="Fill-193" fill="#F3CEA0" points="1983.97805 1471.68003 1840.82989 1554.33088 1983.97805 1636.98172 2127.14112 1554.33088 1983.97805 1471.68003"></polyline>
        <polyline id="Fill-196" fill="#C75445" points="2127.14112 1731.9318 1983.97805 1814.58264 2079.86734 1869.93664 2174.39999 1869.93664 2270.28928 1814.58264 2127.14112 1731.9318"></polyline>
        <polyline id="Fill-199" fill="#3A231B" points="2413.45235 1731.9318 2270.28928 1814.58264 2366.17857 1869.93664 2460.71122 1869.93664 2535.98252 1826.47935 2535.98252 1802.67102 2413.45235 1731.9318"></polyline>
    </g>
</svg>